<?xml version="1.0" encoding="UTF-8"?><svg id="Calque_2" xmlns="http://www.w3.org/2000/svg" viewBox="0 0 467.58 489.85"><defs><style>.cls-1{fill:none;stroke:#000;stroke-linecap:round;stroke-linejoin:round;stroke-width:2px;}</style></defs><g id="Rayonner"><path d="m112.44,264.1c-14.48-5.01-26.27-23.1-33.5-36-.74-1.45-2.85-5.53-3.62-7.04-2.99-6.19-5.69-12.9-9.14-18.85-11.19-19.66-28.09-35.63-47.04-47.76-5.82-3.69-11.94-7.16-18.22-9.92-1.65-.67-.88-3.41,1.08-2.79,27.32,9.92,54.43,20.36,81.1,31.91,23.89,9.78,43.93,21.56,56.4,45.19,2.1,4.01,3.85,8.29,4.89,12.69-1.22-4.36-3.17-8.5-5.38-12.43-8.38-15.03-21.92-26.58-36.99-34.56-6.47-3.21-13.15-6-19.84-8.73-26.82-11.02-53.92-21.4-81.19-31.25,0,0,1.08-2.79,1.08-2.79,12.93,5.87,24.85,13.69,35.7,22.82,14.82,12.55,27.36,28.14,34.93,46.12,1.96,4.47,4.3,9.95,6.53,14.29,1.24,2.68,3.51,6.61,4.92,9.23,6.62,11.07,15.96,24.95,28.31,29.87h0Z"/><path d="m128.89,198.62c-14.92-45.21-43.04-89.11-83.02-115.85,0,0-3.9-2.55-3.9-2.55-.71-.44-.92-1.39-.46-2.08.42-.64,1.26-.85,1.93-.51,11.63,5.98,23.22,12.02,34.81,18.08,17.25,9.36,34.99,17.97,51.53,28.58,13.43,9.48,24.59,22.2,32.23,36.74,1.38,2.83,2.8,6.1,3.32,9.22-1.59-6.31-5.3-11.95-8.97-17.24-7.59-10.51-16.9-19.9-27.66-27.13-5.45-3.56-11.25-6.5-16.99-9.56-20.1-10.57-49.17-25.46-69.63-36.03,0,0,1.47-2.59,1.47-2.59,0,0,3.96,2.61,3.96,2.61,40.09,26.8,68.58,72.31,81.37,118.32h0Z"/><path d="m175.66,215.39c-4.57-6.81-6.8-14.97-8.35-22.93-2.33-12.57-2.18-25.63-.97-38.32,2.44-21.66,8.56-43.25,11.74-64.77,3.23-21.19-1.59-45.47-3.89-66.68-.11-.81.47-1.56,1.29-1.66.62-.08,1.2.25,1.48.77,7.18,13.32,14.2,26.71,20.99,40.24,5.05,10.11,10.11,20.42,14.31,30.94,1.98,4.67,4.38,11.16,6.15,15.9,4.3,12.43,8.31,25.41,10.28,38.43,2.42,14.94,2.1,30.6-3.36,44.86,2.31-7.17,3.7-14.66,3.89-22.2.4-18.82-4.73-37.42-10.92-55.04-6.29-17.7-14.2-34.98-22.76-51.68-6.85-13.45-13.94-26.79-21.18-40.04l2.77-.89c2.25,20.31,6.08,40.75,4.32,61.28-2.6,23.78-10.35,47.03-13.38,70.74-1.58,14.57-2.07,29.6,1.18,43.98,1.37,5.89,3.17,11.92,6.41,17.08h0Z"/><path d="m216.22,215.39c1.59-16.17,12.39-30.19,25.27-39.47,1.54-1.03,3.46-2.47,5.03-3.36,0,0,5.25-3.01,5.25-3.01,10.5-5.68,19.76-13.33,28.71-21.2,17.78-16,34.33-33.41,49.94-51.54,4.92-5.86,10.02-11.64,14.33-17.96.12-.19.11-.22.19-.33l2.79,1.05c-6.71,14.82-13.31,29.71-19.61,44.71-4.66,11.2-9.39,22.52-12.79,34.18-5.85,19.7-17.1,37.65-31.68,52.05-11.63,11.52-25.21,20.84-39.36,28.92,13.78-8.65,27.13-18.18,38.31-29.96,12.74-13,22.64-28.73,28.56-45.93,1.08-3.34,2.45-8.26,3.52-11.66,8.61-25.11,19.66-49.26,30.34-73.53.29-.82,1.23-1.27,2.03-.89,1.29.66.91,1.96.27,2.94-4.42,6.48-9.67,12.33-14.73,18.3-15.85,18.1-32.38,35.63-50.6,51.39-9.17,7.79-18.7,15.39-29.45,20.97-6.91,3.62-13.84,8.1-19.47,13.51-8.52,8.19-15.28,18.96-16.85,30.84h0Z"/><path d="m225.17,192.57c18.42-54.07,56.38-102.61,102.19-136.38,31.41-23.19,67.64-39.56,105.37-49.31,4.67-1.11,12.64-2.84,17.34-3.9,2.03-.36,5.54-.96,7.5-1.3,0,0,10-1.68,10-1.68-3.49.73-11.54,2.49-14.88,3.16-1.27.25-3.69.8-4.93,1.15-5.77,1.53-13.96,3.48-19.53,5.35-12.82,3.74-25.78,8.52-37.99,13.8-2.6,1.03-6.6,3.03-9.17,4.23-1.63.82-5.29,2.44-6.85,3.23-1.41.75-9.56,5.06-11.15,5.9-2.61,1.34-6.15,3.59-8.73,5.07-5.76,3.31-11.51,7.16-17.03,10.82-49.64,34.5-90.02,83.4-112.15,139.87h0Z"/><path d="m225.17,192.57c15-26.88,35.27-50.6,57.62-71.65,37.55-34.88,83.44-61.28,133.14-74.13-4.4,1.56-10.23,3.4-14.49,5.03-4.23,1.59-10.19,3.82-14.24,5.63-65.78,27.5-123.04,75.47-162.03,135.12h0Z"/><path d="m267.5,223.79c17.03-8.18,35.3-13.72,53.84-17.27,9.25-1.6,18.47-3.03,27.26-6.53,8.69-3.2,17.23-7.49,25.21-12.2,10.73-6.35,21.06-13.58,30.55-21.6,1.43-1.2,3.42.9,1.96,2.25-9.67,8.73-19.32,17.5-28.91,26.34-14.35,13.25-28.84,26.4-42.58,40.28-4.54,4.65-8.75,9.79-13.84,13.91-10.12,8.43-22.12,14.39-34.69,17.84,9.24-3.09,18.17-7.28,26.12-12.94,8.14-5.51,14.53-12.85,21.02-20.14,22.53-23.63,46.77-45.53,70.88-67.52,0,0,1.98,2.24,1.98,2.24-4.87,4.14-9.91,7.9-15.09,11.55-12.93,9.02-26.88,17.02-41.78,22.3-2.65.93-6.42,2.12-9.13,2.74-6.09,1.67-12.44,2.22-18.64,3.3-18.54,3.17-36.81,8.1-54.17,15.44h0Z"/><path d="m160.73,278.41c-11.77-10.82-10.35-34.81,4.53-42.31,10.14-4.79,20.07,3.14,22.44,12.98-3.69-7.95-12.45-15-21.21-10.42-13.04,7.23-14.26,28.45-5.77,39.75h0Z"/><path d="m186.02,249.08c3.74-14.51,19.47-19.92,29.3-7.39,7.6,10.07,7.36,25.6-.91,35.01,5.79-10.2,5.55-23.78-1.46-33.18-8.84-11.33-21.51-5.97-26.93,5.55h0Z"/><path d="m188.17,268.38c0,4.6-2.15,8.32-4.82,8.32s-4.81-3.72-4.81-8.32,2.15-8.31,4.81-8.31c.32,0,.63.05.93.16-1.46.45-2.51,1.8-2.51,3.41,0,1.97,1.59,3.57,3.57,3.57,1.04,0,1.98-.45,2.63-1.17.13.74.2,1.52.2,2.34Z"/><path d="m131.79,273.45c-11.34-11.37-33.94-10.2-48.75-8.22-12.1,1.74-24.49,3.05-36.67,3.82-9.83.6-19.63,1.02-29.54.8l.17-2.94c14.16,1.45,28.22,4,41.72,8.5,1.71.51,3.99,1.33,5.71,1.68,7.74,1.96,15.79,2.16,23.74,1.52,4.01-.24,8.02-.86,12.13-.66,3.99.44,8.25,1.64,11,4.69-2.88-2.81-7.16-3.72-11.04-3.97-3.96,0-7.95.81-11.97,1.26-10.02,1.36-20.58.9-30.31-2.29-1.42-.45-4.32-1.27-5.76-1.65-11.59-3.06-23.56-4.99-35.47-6.16-.81-.08-1.41-.79-1.33-1.6.07-.77.73-1.35,1.5-1.34,19.5.18,39.11-1.12,58.53-3.13,14.55-1.75,29.93-3.21,44.02,1.77,4.55,1.7,9.25,4,12.32,7.9h0Z"/><path d="m130.12,292.35c-4.95,10.7-21.28,5.55-20.02-6.02.19-1.36.63-2.67,1.38-3.75-1.35,10.81,10.52,17.05,18.64,9.77h0Z"/><path d="m229.72,276.1c3.07-3.9,7.76-6.2,12.32-7.9,14.09-4.99,29.47-3.52,44.02-1.77,19.42,2.01,39.03,3.31,58.53,3.13.82-.02,1.49.64,1.5,1.46,0,.77-.58,1.41-1.34,1.48-11.91,1.16-23.88,3.09-35.47,6.16-1.46.37-4.33,1.2-5.76,1.65-9.74,3.19-20.29,3.65-30.31,2.29-4.02-.45-8.01-1.26-11.97-1.26-3.88.25-8.15,1.16-11.04,3.97,2.74-3.06,7.01-4.26,11-4.69,4.12-.2,8.13.41,12.13.66,7.96.64,16,.44,23.74-1.52,1.71-.35,4.02-1.17,5.71-1.68,13.51-4.5,27.56-7.05,41.72-8.5,0,0,.17,2.94.17,2.94-9.9.21-19.71-.21-29.54-.8-12.18-.78-24.58-2.09-36.67-3.82-14.82-1.98-37.39-3.16-48.75,8.22h0Z"/><path d="m231.39,295c8.13,7.29,19.99,1.03,18.64-9.77.75,1.08,1.19,2.39,1.38,3.75,1.26,11.57-15.08,16.72-20.02,6.02h0Z"/><path d="m232.21,319.48c-20.13,12.82-71.82,12.2-93.61,2.76-2.42-1.15-4.98-2.4-6.81-4.4,0,0,1.31.93,1.31.93,1.8,1.05,3.88,1.88,5.86,2.52,21.2,6.56,73.19,7.3,93.25-1.81h0Z"/><path d="m131.95,317.76c-8.8-4.45-9.55-18.98-1.84-24.82-3.5,8.05-3.21,17.49,1.84,24.82h0Z"/><path d="m231.39,320.31c5.05-7.33,5.34-16.77,1.84-24.82,7.71,5.84,6.96,20.37-1.84,24.82h0Z"/><path d="m130.12,316.35c2.79,3.56,5.02,7.48,6.94,11.57,1.86,4.25,3.55,8.54,3.61,13.34,0,0-2.9-.23-2.9-.23,1.34-6.15,3.23-12.7,7.87-17.18-2.87,5.46-3.96,11.63-4.99,17.64-.28,1.73-2.84,1.56-2.9-.18-.06-2-.54-4.12-1.09-6.21-1.78-6.38-4.34-12.43-6.55-18.76h0Z"/><path d="m234.21,316.35c-2.21,6.33-4.77,12.37-6.55,18.76-.55,2.09-1.03,4.21-1.09,6.21-.07,1.75-2.62,1.9-2.9.18-1.03-6-2.12-12.18-4.99-17.64,4.64,4.48,6.53,11.03,7.87,17.18,0,0-2.9.23-2.9.23.06-4.8,1.75-9.1,3.61-13.34,1.92-4.09,4.15-8.01,6.94-11.57h0Z"/><path d="m199.14,288.7c4.01,2.29,5.02,7.96,1.95,11.57-2.79,3.62-7.41,5.16-11.8,5.31-4.39.09-9.01-1.33-12.05-4.67-3.28-3.33-3.07-9.07.83-11.69-5.69,7.97,3.8,13.83,11.16,13.36,7.72.13,16.25-6.26,9.91-13.88h0Z"/><path d="m164.06,326.85c8.9,2.97,12.27,13.84,11.65,22.4-.58,4.43-.57,4.57-1.47.1-1.83-8.09-3.99-16.59-10.18-22.5h0Z"/><path d="m202.41,326.85c-6.19,5.92-8.35,14.41-10.18,22.5-.89,4.39-.88,4.42-1.47-.1-.62-8.56,2.76-19.44,11.65-22.4h0Z"/><path d="m193.15,343.22c3.8.52,8.26,1.2,10.67,4.57,1.68,2.67-.74,5.56-3.03,6.8-2.83,1.7-5.92,2.49-8.98,3.1-6.17,1.1-12.46,1.04-18.61-.13-15.37-2.92-16.19-13,.17-14.49-7.3,2.07-16.21,6.99-3.91,10.74,7.05,1.95,14.66,2.1,21.89,1.09,12.91-1.98,15.85-7.2,1.8-11.68h0Z"/><path d="m161.31,350.04c-2.43,2.64-2.29,6.59-1.77,9.92.44,1.85.59,3.86.12,5.68-1.75,7.24-6.31,13.3-10.76,19.05-5.49,6.36-10.99,14.18-10.67,22.97.14,2.33.8,4.6,1.91,6.67-1.55-1.82-2.66-4.09-3.13-6.52-1.54-7.55,2.78-16.34,6.62-21.29,2.04-2.55,4.22-5.28,6.16-7.9,3.38-4.91,7.38-9.92,8.19-15.92.1-.76-.07-1.81-.11-2.56-.19-3.54.34-7.91,3.43-10.11h0Z"/><path d="m142.31,414.33c1.08-3.81,5.31-6.07,9.09-6.32,3.84-.44,7.65.76,11.24,1.68,0,0,10.59,2.75,10.59,2.75,3.56.79,7.06,1.87,10.75,1.89-1.76.7-3.7.76-5.57.8-5.6-.06-11.14-1.14-16.53-2.53-6.64-1.93-14.7-4.61-19.57,1.74h0Z"/><path d="m183.98,414.33c6.69-1.63,13.65-2.14,20.53-1.57,6.29.54,12.84,2.46,19.03.55.08-.03.15-.06.21-.09.05-.02.16-.09.09-.04l-.37.36c3.9-5.7,2.3-13.06-.63-18.87-1.63-3.48-4.49-7.07-6.87-10.05-3.33-4.33-6.43-8.8-8.77-13.79-1.12-2.52-2.15-5.26-2.12-8.09-.02-.87.25-1.9.38-2.75.48-3.37.55-7.34-2.01-9.94,2.97,2.3,3.41,6.57,3.18,10.08-.22,1.7-.22,3.42.32,5.06,2.51,7.49,7.92,13.72,12.84,19.8,5.57,6.4,11.44,17.12,7.83,26.72-.47,1.24-1.14,2.38-1.87,3.46-.17.28-.61.49-.82.58-6.73,2.34-13.91-.03-20.65-1.08-6.7-1-13.55-1.04-20.3-.33h0Z"/><path d="m138.2,414.57c-16.74,14.75-8.9,33.48,4.08,47.54,0,0-1.55-.37-1.55-.37,10.59-4.22,18.87-13.58,20.58-25.02.19,12.26-8.58,23.04-19.58,27.72-.56.24-1.18.07-1.55-.37-3.2-3.49-6.24-7.19-8.67-11.34-8.16-13.28-7.32-29.41,6.7-38.15h0Z"/><path d="m160.1,443.77c3.99,9.72,12.94,16.32,22.38,20.24,0,0-1.16.03-1.16.03,2.66-1.35,5.21-3.35,7.34-5.48,3.83-3.71,6.66-8.31,8.94-13.12-.81,4.33-2.52,8.54-5.05,12.17-1.9,2.78-4.3,5.25-7.02,7.27-.95.67-1.85,1.27-2.99,1.84-.37.19-.8.18-1.16.03-9.92-3.89-19.65-11.93-21.28-22.98h0Z"/><path d="m193.12,432.96c3.61,11.37,12.31,22.44,24.92,23.46,0,0-.83.15-.83.15,1.55-.87,3.11-2.18,4.43-3.44,10.59-10.04,9.33-25.83,4.81-38.56,7.14,12.72,8.55,29.83-2.72,40.7-1.59,1.54-3.18,2.82-5.18,3.92-.26.14-.54.19-.82.16-3.27-.39-6.53-1.3-9.43-2.91-8.63-4.62-13.82-14.05-15.2-23.47h0Z"/><path d="m72.92,183.94c22.07,11.27,43.96,31.21,51.44,55.42.99,3.57,1.69,7.2,1.94,10.86-.91-3.56-1.98-7.03-3.33-10.38-9.96-23.56-29.84-41.03-50.05-55.91h0Z"/><path d="m97.28,117.66c23.09,17.74,51.69,48,57.9,77.09-5.65-15.26-15.1-28.55-25.2-41.12-10.18-12.63-21.31-24.38-32.7-35.97h0Z"/><path d="m191.14,92.34c11.03,26.95,10.68,58.91,2.83,86.67-.88,2.78-1.88,5.91-2.83,8.64.64-3.99,1.61-7.9,2.21-11.88,4.69-27.57,4.73-56.22-2.21-83.43h0Z"/><path d="m296.46,166.53c-20.46,10.74-43.09,24.36-53.75,45.65-1.47,3.07-2.61,6.31-3.5,9.67.24-3.46,1.01-6.9,2.14-10.23,8.37-22.42,33.18-38.08,55.11-45.09h0Z"/><path d="m329.04,219.43c-15.42,15.26-40.66,31.77-62.9,32.09,11.66-2.52,22.39-7.47,32.73-13.21,10.4-5.74,20.28-12.27,30.17-18.88h0Z"/><polyline class="cls-1" points="162.33 347.16 114.53 389.58 140.02 391.51"/><polyline class="cls-1" points="158.24 357.7 125.4 386.03 145.56 387.16"/><polyline class="cls-1" points="204.94 350.73 242.59 317.76 238.72 309.1"/><polyline class="cls-1" points="206.69 358.13 251.68 318.84 243.59 302.11"/><path class="cls-1" d="m153.81,454.57s-2.62,7.02-.2,13.27"/><path class="cls-1" d="m162.23,450.12s-3.94,10.53-.3,19.92"/><path class="cls-1" d="m204.78,452.45s2.62,7.02.2,13.27"/><path class="cls-1" d="m196.37,450.1s3.94,10.53.3,19.92"/><path d="m162.09,463.56c9.98.4,8.27,7.17-.31,8.64-5.29.85-11.06.87-15.66-2.37-1.57-1.16-2.02-3.44-.32-4.72,1.83-1.42,4.27-1.67,6.4-1.66-5.8,2.19-8.36,4.4-.42,5.85,4.53.62,9.69.69,13.94-1.05,3.74-1.69-1.86-3.93-3.63-4.68h0Z"/><path d="m206.71,463.56c2.11.07,4.73.34,6.29,2.16,1.06,1.24.41,3.16-.83,4.05-4.7,3.37-10.84,3.32-16.27,2.32-1.92-.48-4.13-1.14-5.68-2.78-1.75-1.83-.72-4.08,1.39-4.94,1.71-.74,3.43-.94,5.14-.92-1.48.59-7.58,2.86-4.56,4.53,4.06,1.97,9.31,1.9,13.77,1.41,7.07-1.11,7.63-3.07.74-5.84h0Z"/><path d="m27.74,269.83c14.43-1.17,28.91-1.28,43.37-.62,12.6.8,25.51,1.6,37.51,5.84,1.72.59,3.35,1.43,4.89,2.37-6.59-3-13.87-3.71-20.97-4.62-7.15-.76-14.34-1.25-21.53-1.6-12.55-.66-30.54-1.02-43.27-1.37h0Z"/><path d="m331.87,272.34c-12.83.36-30.67.71-43.27,1.37-7.2.35-14.38.83-21.53,1.6-7.1.91-14.38,1.62-20.97,4.62,1.54-.95,3.17-1.78,4.89-2.37,12-4.24,24.91-5.04,37.51-5.84,14.46-.66,28.94-.55,43.37.62h0Z"/><path d="m147.27,423.04c-2.74,6.57-4.41,13.79-3.43,20.91.05,1.03.39,2.01.53,3.04-3.29-7.73-1.56-17.05,2.9-23.95h0Z"/><path d="m179.03,425.99c-1.68,6.92-2.2,14.3-.13,21.18.22,1.01.7,1.92,1,2.93-4.46-7.12-4.2-16.6-.87-24.11h0Z"/><path d="m210.77,423.04c4.47,6.9,6.19,16.22,2.9,23.95.29-1.47.58-3.06.72-4.56.5-6.65-1.05-13.27-3.62-19.39h0Z"/><path d="m197.91,268.38c0,4.6-2.16,8.32-4.82,8.32s-4.81-3.72-4.81-8.32,2.15-8.31,4.81-8.31c.39,0,.77.08,1.13.23-1.36.5-2.32,1.8-2.32,3.34,0,1.97,1.6,3.57,3.57,3.57.88,0,1.67-.31,2.29-.84.1.64.15,1.31.15,2.01Z"/><path d="m92.36,484.71c.76-2.14,3.52-3.04,5.61-2.36,1.97.73,3.45,2.17,4.75,3.81-1.96-.22-3.57-1.22-5.33-1.89-1.68-.49-3.33-.32-5.03.45h0Z"/><path d="m168.24,469.64c3.43,3.11,6.78,6.32,10.17,9.48.93.76,1.76,2.05,1.73,3.35.1,2.24-1.81,4.3-4.07,4.38-.26.01-1.03.06-1.3.08-10.39.62-20.82,1.12-31.22,1.56-16.15.64-32.43,1.17-48.61,1.27-1.24.08-2.51-.65-3.03-1.75-.54-1.1-.34-2.47.44-3.33-.7.93-.75,2.25-.18,3.19.55.97,1.66,1.51,2.74,1.37l6.93-.51c23.1-1.54,46.24-2.54,69.39-3.14,0,0,3.47-.08,3.47-.08.97-.03,2.14.06,2.97-.56,1.75-1.2,1.7-3.79.05-5.13-3.16-3.39-6.36-6.73-9.48-10.17h0Z"/><path d="m96.91,481.84c6.83-5.64,17.49-3.23,23.43,2.62-1.01-.35-1.94-.78-2.89-1.17-6.54-2.65-13.6-3.88-20.53-1.45h0Z"/><path d="m107.57,479.4c6.83-5.64,17.49-3.23,23.43,2.62-1.01-.35-1.94-.78-2.89-1.17-6.54-2.65-13.6-3.88-20.53-1.45h0Z"/><path d="m117.71,476.27c6.83-5.64,17.49-3.23,23.43,2.62-1.01-.35-1.94-.78-2.89-1.17-6.54-2.65-13.6-3.88-20.53-1.45h0Z"/><path d="m127.44,473.43c6.83-5.64,17.49-3.23,23.43,2.62-1.01-.35-1.94-.78-2.89-1.17-6.54-2.65-13.6-3.88-20.53-1.45h0Z"/><path d="m138.23,470.9c9.68-5.37,22.15-.44,28.72,7.66-1.15-.66-2.22-1.41-3.31-2.1-7.5-4.73-16.52-7.64-25.41-5.56h0Z"/><path d="m267.82,484.72c-1.7-.77-3.35-.94-5.03-.45-1.76.67-3.37,1.67-5.33,1.89,1.3-1.64,2.79-3.07,4.75-3.81,2.09-.68,4.85.22,5.61,2.36h0Z"/><path d="m191.48,469.57c-3.13,3.46-6.35,6.82-9.53,10.24-1.66,1.35-1.73,3.94.03,5.17.84.62,1.99.54,2.98.57,0,0,3.49.09,3.49.09,23.29.61,46.57,1.62,69.82,3.17,0,0,6.97.51,6.97.51,1.08.14,2.2-.41,2.75-1.38.58-.95.52-2.27-.18-3.21.78.87.99,2.25.45,3.36-.52,1.12-1.79,1.85-3.04,1.77-16.28-.1-32.65-.64-48.91-1.28-10.46-.45-20.96-.95-31.41-1.58,0,0-.87-.05-.87-.05,0,0-.44-.03-.44-.03-2.27-.09-4.18-2.18-4.07-4.43-.02-1.31.8-2.6,1.74-3.37,3.41-3.18,6.77-6.41,10.22-9.55h0Z"/><path d="m263.26,481.85c-6.93-2.43-13.99-1.2-20.53,1.45-.95.39-1.88.82-2.89,1.17,5.93-5.85,16.6-8.26,23.43-2.62h0Z"/><path d="m252.61,479.41c-6.93-2.43-13.99-1.2-20.53,1.45-.95.39-1.88.82-2.89,1.17,5.93-5.85,16.6-8.26,23.43-2.62h0Z"/><path d="m242.46,476.28c-6.93-2.43-13.99-1.2-20.53,1.45-.95.39-1.88.82-2.89,1.17,5.93-5.85,16.6-8.26,23.43-2.62h0Z"/><path d="m232.74,473.44c-6.93-2.43-13.99-1.2-20.53,1.45-.95.39-1.88.82-2.89,1.17,5.93-5.85,16.6-8.26,23.43-2.62h0Z"/><path d="m221.94,470.91c-8.89-2.08-17.9.83-25.41,5.56-1.09.69-2.16,1.44-3.31,2.1,6.57-8.1,19.04-13.03,28.72-7.66h0Z"/></g></svg>