<?xml version="1.0" encoding="UTF-8"?><svg id="Calque_2" xmlns="http://www.w3.org/2000/svg" viewBox="0 0 346.42 362.92"><g id="Rayonner"><path d="m83.3,195.67c-10.72-3.71-19.47-17.12-24.82-26.67-.55-1.07-2.11-4.1-2.68-5.22-2.21-4.59-4.22-9.56-6.78-13.97-8.29-14.56-20.81-26.4-34.85-35.38-4.31-2.73-8.85-5.31-13.5-7.35-1.22-.5-.66-2.53.8-2.06,20.24,7.35,40.32,15.08,60.08,23.64,17.7,7.25,32.55,15.97,41.79,33.48,1.55,2.97,2.85,6.14,3.62,9.4-.91-3.23-2.34-6.3-3.98-9.21-6.21-11.13-16.24-19.69-27.41-25.61-4.8-2.37-9.74-4.44-14.7-6.47-19.87-8.17-39.95-15.86-60.15-23.15,0,0,.8-2.06.8-2.06,9.58,4.35,18.41,10.14,26.45,16.91,10.98,9.29,20.27,20.85,25.88,34.17,1.45,3.31,3.18,7.37,4.84,10.59.92,1.99,2.6,4.9,3.65,6.84,4.9,8.2,11.83,18.49,20.97,22.13h0Z"/><path d="m95.49,147.15c-11.06-33.49-31.88-66.02-61.5-85.83,0,0-2.89-1.89-2.89-1.89-.52-.33-.68-1.03-.34-1.54.31-.48.93-.63,1.43-.38,8.62,4.43,17.2,8.91,25.79,13.4,12.78,6.93,25.93,13.31,38.18,21.17,9.95,7.02,18.22,16.45,23.88,27.22,1.02,2.1,2.07,4.52,2.46,6.83-1.18-4.67-3.92-8.85-6.64-12.77-5.63-7.79-12.52-14.74-20.5-20.1-4.04-2.63-8.34-4.82-12.59-7.08-14.89-7.83-36.43-18.86-51.59-26.7,0,0,1.09-1.92,1.09-1.92l2.94,1.94c29.7,19.85,50.81,53.57,60.28,87.66h0Z"/><path d="m130.14,159.58c-3.39-5.04-5.04-11.09-6.19-16.99-1.73-9.31-1.62-18.99-.72-28.39,1.8-16.05,6.35-32.04,8.7-47.99,2.39-15.7-1.18-33.69-2.88-49.4-.08-.6.35-1.15.95-1.23.46-.06.89.18,1.1.57,5.32,9.87,10.52,19.79,15.55,29.81,3.74,7.49,7.49,15.13,10.6,22.92,1.47,3.46,3.24,8.27,4.56,11.78,3.18,9.21,6.16,18.83,7.62,28.47,1.8,11.07,1.56,22.67-2.49,33.24,1.71-5.31,2.74-10.86,2.88-16.45.3-13.94-3.5-27.72-8.09-40.78-4.66-13.12-10.52-25.91-16.86-38.29-5.07-9.96-10.33-19.85-15.69-29.66l2.05-.66c1.66,15.05,4.51,30.19,3.2,45.4-1.92,17.62-7.67,34.85-9.91,52.41-1.17,10.79-1.53,21.93.87,32.59,1.01,4.37,2.35,8.83,4.75,12.65h0Z"/><path d="m160.19,159.58c1.18-11.98,9.18-22.36,18.72-29.24,1.14-.76,2.56-1.83,3.73-2.49,0,0,3.89-2.23,3.89-2.23,7.78-4.21,14.64-9.88,21.27-15.71,13.17-11.85,25.44-24.75,37-38.18,3.65-4.34,7.43-8.62,10.61-13.31.09-.14.08-.17.14-.25,0,0,2.07.78,2.07.78-4.97,10.98-9.86,22.01-14.53,33.12-3.45,8.3-6.96,16.69-9.47,25.32-4.33,14.59-12.67,27.9-23.47,38.56-8.62,8.53-18.67,15.44-29.16,21.43,10.21-6.41,20.1-13.47,28.38-22.2,9.44-9.63,16.77-21.28,21.16-34.03.8-2.48,1.81-6.12,2.61-8.64,6.38-18.61,14.57-36.5,22.48-54.48.21-.61.91-.94,1.51-.66.95.49.67,1.45.2,2.18-3.27,4.8-7.16,9.14-10.91,13.56-11.74,13.41-23.99,26.39-37.49,38.07-6.8,5.77-13.86,11.4-21.82,15.53-5.12,2.68-10.25,6-14.43,10.01-6.31,6.07-11.32,14.05-12.48,22.85h0Z"/><path d="m166.83,142.67c13.65-40.06,41.77-76.02,75.71-101.04,23.27-17.18,50.12-29.31,78.07-36.53,3.46-.82,9.37-2.1,12.85-2.89,1.5-.27,4.11-.71,5.56-.96,0,0,7.41-1.25,7.41-1.25-2.59.54-8.55,1.85-11.02,2.34-.94.18-2.74.59-3.65.85-4.28,1.13-10.34,2.58-14.47,3.96-9.49,2.77-19.1,6.31-28.14,10.22-1.93.76-4.89,2.24-6.79,3.13-1.21.6-3.92,1.81-5.07,2.39-1.04.56-7.08,3.75-8.26,4.37-1.93.99-4.56,2.66-6.47,3.76-4.27,2.45-8.53,5.31-12.62,8.02-36.78,25.56-66.7,61.79-83.09,103.62h0Z"/><path d="m166.83,142.67c11.11-19.92,26.13-37.49,42.69-53.09,27.82-25.84,61.82-45.4,98.64-54.92-3.26,1.15-7.58,2.52-10.74,3.73-3.14,1.18-7.55,2.83-10.55,4.17-48.73,20.38-91.16,55.91-120.05,100.11h0Z"/><path d="m198.18,165.81c12.62-6.06,26.15-10.17,39.89-12.8,6.85-1.18,13.69-2.25,20.2-4.84,6.44-2.37,12.77-5.55,18.68-9.04,7.95-4.7,15.6-10.06,22.63-16,1.06-.89,2.53.67,1.46,1.67-7.17,6.47-14.32,12.97-21.42,19.52-10.63,9.82-21.37,19.56-31.55,29.85-3.36,3.44-6.48,7.25-10.26,10.31-7.5,6.24-16.39,10.66-25.7,13.22,6.85-2.29,13.46-5.4,19.35-9.58,6.03-4.08,10.76-9.52,15.57-14.92,16.7-17.51,34.65-33.73,52.51-50.03,0,0,1.47,1.66,1.47,1.66-3.61,3.06-7.35,5.86-11.18,8.56-9.58,6.68-19.92,12.61-30.95,16.52-1.97.69-4.76,1.57-6.76,2.03-4.51,1.24-9.22,1.64-13.81,2.45-13.73,2.35-27.27,6-40.13,11.44h0Z"/><path d="m119.08,206.27c-8.72-8.02-7.67-25.79,3.36-31.35,7.51-3.55,14.87,2.32,16.63,9.61-2.74-5.89-9.22-11.11-15.72-7.72-9.66,5.36-10.56,21.08-4.27,29.45h0Z"/><path d="m137.82,184.54c2.77-10.75,14.42-14.76,21.71-5.47,5.63,7.46,5.45,18.97-.67,25.94,4.29-7.56,4.11-17.62-1.08-24.58-6.55-8.4-15.93-4.42-19.95,4.11h0Z"/><path d="m139.42,198.84c0,3.41-1.59,6.16-3.57,6.16s-3.56-2.76-3.56-6.16,1.59-6.16,3.56-6.16c.24,0,.47.04.69.12-1.08.33-1.86,1.33-1.86,2.53,0,1.46,1.18,2.64,2.64,2.64.77,0,1.47-.33,1.95-.87.1.55.15,1.13.15,1.73Z"/><path d="m97.64,202.6c-8.4-8.43-25.14-7.56-36.12-6.09-8.96,1.29-18.14,2.26-27.17,2.83-7.28.44-14.55.75-21.88.6l.12-2.18c10.49,1.07,20.9,2.96,30.91,6.29,1.27.38,2.95.98,4.23,1.24,5.74,1.45,11.7,1.6,17.59,1.13,2.97-.18,5.94-.64,8.99-.49,2.95.32,6.11,1.21,8.15,3.48-2.14-2.08-5.3-2.75-8.18-2.94-2.93,0-5.89.6-8.87.94-7.43,1.01-15.24.67-22.46-1.69-1.05-.33-3.2-.94-4.27-1.22-8.59-2.27-17.46-3.7-26.28-4.56-.6-.06-1.04-.59-.99-1.19.05-.57.54-1,1.11-.99,14.45.13,28.98-.83,43.36-2.32,10.78-1.29,22.18-2.38,32.61,1.31,3.37,1.26,6.85,2.97,9.13,5.85h0Z"/><path d="m96.4,216.6c-3.67,7.93-15.77,4.11-14.83-4.46.14-1.01.46-1.97,1.02-2.78-1,8.01,7.79,12.63,13.81,7.24h0Z"/><path d="m170.19,204.56c2.27-2.89,5.75-4.59,9.13-5.85,10.44-3.69,21.83-2.61,32.61-1.31,14.38,1.49,28.92,2.45,43.36,2.32.61-.01,1.11.47,1.11,1.08,0,.57-.43,1.05-.99,1.1-8.82.86-17.69,2.29-26.28,4.56-1.08.28-3.21.89-4.27,1.22-7.21,2.36-15.03,2.7-22.46,1.69-2.98-.34-5.93-.93-8.87-.94-2.87.18-6.04.86-8.18,2.94,2.03-2.26,5.2-3.16,8.15-3.48,3.05-.15,6.02.31,8.99.49,5.89.47,11.85.33,17.59-1.13,1.27-.26,2.98-.87,4.23-1.24,10.01-3.33,20.42-5.22,30.91-6.29,0,0,.12,2.18.12,2.18-7.34.16-14.6-.15-21.88-.6-9.02-.58-18.21-1.55-27.17-2.83-10.98-1.47-27.7-2.34-36.12,6.09h0Z"/><path d="m171.43,218.56c6.02,5.4,14.81.77,13.81-7.24.56.8.88,1.77,1.02,2.78.93,8.58-11.17,12.39-14.83,4.46h0Z"/><path d="m172.04,236.7c-14.91,9.5-53.21,9.04-69.35,2.04-1.79-.85-3.69-1.78-5.05-3.26,0,0,.97.69.97.69,1.33.78,2.87,1.39,4.34,1.87,15.7,4.86,54.22,5.41,69.09-1.34h0Z"/><path d="m97.76,235.42c-6.52-3.3-7.07-14.07-1.36-18.39-2.59,5.97-2.38,12.96,1.36,18.39h0Z"/><path d="m171.43,237.31c3.74-5.43,3.95-12.42,1.36-18.39,5.71,4.33,5.16,15.09-1.36,18.39h0Z"/><path d="m96.4,234.38c2.06,2.64,3.72,5.55,5.14,8.57,1.38,3.15,2.63,6.33,2.68,9.89,0,0-2.15-.17-2.15-.17.99-4.55,2.39-9.41,5.83-12.73-2.13,4.04-2.93,8.62-3.69,13.07-.21,1.28-2.1,1.16-2.15-.13-.04-1.48-.4-3.05-.8-4.6-1.32-4.73-3.21-9.21-4.85-13.9h0Z"/><path d="m173.52,234.38c-1.64,4.69-3.53,9.17-4.85,13.9-.41,1.55-.76,3.12-.8,4.6-.05,1.3-1.94,1.41-2.15.13-.76-4.45-1.57-9.02-3.69-13.07,3.44,3.32,4.84,8.17,5.83,12.73,0,0-2.15.17-2.15.17.05-3.56,1.3-6.74,2.68-9.89,1.42-3.03,3.08-5.94,5.14-8.57h0Z"/><path d="m147.54,213.9c2.97,1.7,3.72,5.9,1.45,8.57-2.07,2.68-5.49,3.82-8.74,3.93-3.25.06-6.68-.99-8.93-3.46-2.43-2.47-2.27-6.72.62-8.66-4.22,5.9,2.82,10.25,8.27,9.9,5.72.1,12.04-4.64,7.34-10.28h0Z"/><path d="m121.55,242.16c6.59,2.2,9.09,10.25,8.63,16.6-.43,3.28-.42,3.39-1.09.07-1.36-6-2.96-12.29-7.54-16.67h0Z"/><path d="m149.96,242.16c-4.59,4.38-6.19,10.68-7.54,16.67-.66,3.25-.65,3.27-1.09-.07-.46-6.34,2.04-14.4,8.63-16.6h0Z"/><path d="m143.11,254.29c2.81.38,6.12.89,7.91,3.39,1.25,1.98-.55,4.12-2.24,5.04-2.1,1.26-4.38,1.85-6.65,2.3-4.57.82-9.23.77-13.79-.1-11.39-2.16-12-9.63.12-10.74-5.41,1.53-12.01,5.18-2.9,7.96,5.23,1.44,10.86,1.55,16.22.81,9.56-1.47,11.74-5.33,1.34-8.65h0Z"/><path d="m119.51,259.34c-1.8,1.96-1.7,4.88-1.31,7.35.33,1.37.43,2.86.09,4.21-1.29,5.36-4.68,9.85-7.98,14.12-4.06,4.71-8.14,10.51-7.91,17.01.1,1.72.59,3.41,1.42,4.95-1.15-1.35-1.97-3.03-2.32-4.83-1.14-5.6,2.06-12.11,4.91-15.77,1.51-1.89,3.13-3.91,4.56-5.85,2.5-3.64,5.47-7.35,6.07-11.8.07-.56-.05-1.34-.08-1.9-.14-2.62.25-5.86,2.54-7.49h0Z"/><path d="m105.44,306.97c.8-2.82,3.93-4.5,6.74-4.68,2.84-.33,5.67.57,8.33,1.25,0,0,7.85,2.04,7.85,2.04,2.64.59,5.23,1.39,7.96,1.4-1.3.52-2.74.56-4.13.59-4.15-.04-8.26-.84-12.25-1.88-4.92-1.43-10.89-3.42-14.5,1.29h0Z"/><path d="m136.31,306.97c4.95-1.21,10.11-1.59,15.21-1.16,4.66.4,9.51,1.82,14.1.41.06-.02.11-.05.16-.07.04-.01.11-.06.07-.03l-.27.27c2.89-4.23,1.7-9.68-.47-13.98-1.21-2.58-3.33-5.24-5.09-7.45-2.47-3.21-4.77-6.52-6.5-10.21-.83-1.87-1.6-3.89-1.57-6-.02-.64.19-1.41.28-2.04.36-2.5.41-5.44-1.49-7.37,2.2,1.7,2.53,4.87,2.36,7.47-.16,1.26-.17,2.53.23,3.75,1.17,3.71,3.5,6.94,5.81,10.05,1.34,1.79,2.89,3.67,4.34,5.38,4.29,5.03,8.77,14.77,3.77,21.6-.22.3-.59.43-.89.55-3.68,1.15-7.64.47-11.33-.23-6.15-1.36-12.46-1.6-18.73-.93h0Z"/><path d="m102.39,307.15c-12.4,10.93-6.59,24.8,3.02,35.22,0,0-1.15-.28-1.15-.28,7.85-3.12,13.98-10.06,15.25-18.54.14,9.08-6.36,17.07-14.51,20.53-.41.18-.88.05-1.15-.28-2.37-2.58-4.63-5.33-6.43-8.4-6.05-9.84-5.42-21.79,4.97-28.26h0Z"/><path d="m118.61,328.78c2.96,7.2,9.59,12.09,16.58,15,0,0-.86.02-.86.02,1.97-1,3.86-2.49,5.44-4.06,2.83-2.75,4.94-6.15,6.62-9.72-.6,3.21-1.87,6.33-3.74,9.01-1.41,2.06-3.19,3.89-5.2,5.38-.7.49-1.37.94-2.22,1.37-.28.14-.59.14-.86.02-7.35-2.88-14.56-8.84-15.77-17.02h0Z"/><path d="m143.08,320.77c2.68,8.43,9.12,16.63,18.46,17.38,0,0-.61.11-.61.11,1.15-.65,2.31-1.62,3.29-2.55,7.84-7.44,6.92-19.13,3.56-28.57,5.29,9.43,6.33,22.1-2.01,30.15-1.18,1.14-2.36,2.09-3.84,2.91-.19.1-.4.14-.6.12-2.42-.29-4.84-.96-6.98-2.15-6.39-3.43-10.24-10.41-11.26-17.39h0Z"/><path d="m54.03,136.28c16.35,8.35,32.57,23.12,38.11,41.06.74,2.64,1.25,5.34,1.44,8.05-.67-2.64-1.46-5.21-2.47-7.69-7.38-17.46-22.11-30.4-37.08-41.42h0Z"/><path d="m72.07,87.17c17.1,13.14,38.3,35.56,42.9,57.12-4.19-11.31-11.18-21.15-18.67-30.47-7.54-9.36-15.79-18.07-24.22-26.65h0Z"/><path d="m141.61,68.41c8.17,19.96,7.92,43.64,2.1,64.21-.65,2.06-1.39,4.38-2.1,6.4.47-2.96,1.19-5.85,1.64-8.8,3.47-20.42,3.51-41.65-1.64-61.81h0Z"/><path d="m219.64,123.38c-15.16,7.96-31.93,18.05-39.82,33.82-1.09,2.28-1.93,4.67-2.59,7.16.18-2.57.75-5.11,1.59-7.58,6.2-16.61,24.58-28.21,40.83-33.41h0Z"/><path d="m243.78,162.57c-11.42,11.31-30.12,23.54-46.6,23.78,8.64-1.87,16.59-5.54,24.25-9.79,7.7-4.25,15.03-9.09,22.35-13.99h0Z"/><path d="m103.74,290.8s-.04,0-.06,0l-18.88-1.43c-.3-.02-.55-.22-.65-.5-.1-.28-.01-.59.21-.79l35.41-31.43c.31-.27.77-.24,1.05.06.27.31.24.77-.06,1.05l-34.11,30.27,17.14,1.3c.41.03.71.39.68.8-.03.39-.35.68-.74.68Z"/><path d="m107.85,287.58s-.03,0-.04,0l-14.94-.84c-.3-.02-.56-.21-.66-.5-.1-.29-.01-.6.22-.8l24.33-20.98c.31-.27.78-.23,1.04.08.27.31.23.78-.08,1.04l-22.94,19.79,13.1.73c.41.02.72.37.7.78-.02.39-.35.7-.74.7Z"/><path d="m151.84,260.59c-.21,0-.41-.09-.56-.25-.27-.31-.24-.78.07-1.05l27.48-24.06-2.65-5.92c-.17-.37,0-.81.37-.98.38-.17.81,0,.98.37l2.87,6.42c.13.3.06.65-.19.86l-27.89,24.43c-.14.12-.31.18-.49.18Z"/><path d="m153.13,266.07c-.21,0-.41-.09-.56-.25-.27-.31-.24-.78.07-1.05l32.9-28.73-5.74-11.88c-.18-.37-.02-.81.34-.99.37-.18.81-.02.99.34l5.99,12.39c.15.3.07.66-.18.88l-33.33,29.11c-.14.12-.31.18-.49.18Z"/><path d="m113.81,347.35c-.3,0-.58-.18-.69-.47-1.87-4.84.06-10.13.15-10.36.14-.38.57-.58.95-.43.38.14.58.57.44.95-.02.05-1.82,5-.15,9.3.15.38-.04.81-.42.96-.09.03-.18.05-.27.05Z"/><path d="m119.97,348.98c-.3,0-.58-.18-.69-.47-2.76-7.13.1-14.95.22-15.28.14-.38.57-.58.95-.43.38.14.58.57.43.95-.03.08-2.78,7.63-.23,14.23.15.38-.04.81-.42.96-.09.03-.18.05-.27.05Z"/><path d="m151.87,345.78c-.09,0-.18-.02-.27-.05-.38-.15-.57-.58-.42-.96,1.67-4.3-.13-9.25-.15-9.3-.14-.38.05-.81.44-.95.38-.14.81.05.95.43.08.22,2.02,5.52.15,10.36-.11.29-.39.47-.69.47Z"/><path d="m145.71,348.97c-.09,0-.18-.02-.27-.05-.38-.15-.57-.58-.42-.96,2.56-6.61-.2-14.15-.23-14.23-.14-.38.05-.81.43-.95.38-.14.81.05.95.43.12.33,2.98,8.15.22,15.28-.11.29-.39.47-.69.47Z"/><path d="m120.09,343.44c7.39.3,6.13,5.31-.23,6.4-3.92.63-8.19.65-11.6-1.75-1.16-.86-1.5-2.55-.24-3.5,1.35-1.05,3.16-1.24,4.74-1.23-4.29,1.62-6.19,3.26-.31,4.33,3.36.46,7.18.51,10.32-.78,2.77-1.25-1.38-2.91-2.69-3.47h0Z"/><path d="m153.15,343.44c1.56.05,3.51.25,4.66,1.6.95,1.16.07,2.68-1.06,3.34-4.04,2.48-11.48,2.54-15.38-.27-.69-.55-1.29-1.43-1.04-2.39.8-2.14,3.58-2.32,5.45-2.36-1.1.43-5.62,2.12-3.38,3.36,3.01,1.46,6.89,1.41,10.2,1.04,5.24-.82,5.65-2.27.55-4.33h0Z"/><path d="m20.55,199.91c10.69-.87,21.42-.95,32.13-.46,9.33.59,18.9,1.19,27.79,4.33,1.27.44,2.48,1.06,3.62,1.76-4.88-2.23-10.27-2.75-15.53-3.43-5.3-.57-10.62-.93-15.95-1.18-9.29-.49-22.63-.76-32.06-1.02h0Z"/><path d="m245.88,201.77c-9.5.26-22.72.53-32.06,1.02-5.33.26-10.65.62-15.95,1.18-5.26.67-10.65,1.2-15.53,3.43,1.14-.7,2.35-1.32,3.62-1.76,8.89-3.14,18.46-3.74,27.79-4.33,10.71-.49,21.44-.4,32.13.46h0Z"/><path d="m109.11,313.42c-2.03,4.87-3.26,10.21-2.54,15.49.04.77.29,1.49.39,2.26-2.44-5.73-1.16-12.63,2.15-17.74h0Z"/><path d="m132.64,315.61c-1.25,5.13-1.63,10.6-.09,15.7.16.75.52,1.42.74,2.17-3.3-5.28-3.11-12.3-.65-17.86h0Z"/><path d="m156.16,313.42c3.31,5.11,4.59,12.02,2.15,17.74.22-1.09.43-2.27.53-3.38.37-4.93-.78-9.83-2.68-14.36h0Z"/><path d="m146.63,198.84c0,3.41-1.6,6.16-3.57,6.16s-3.56-2.76-3.56-6.16,1.59-6.16,3.56-6.16c.29,0,.57.06.84.17-1.01.37-1.72,1.33-1.72,2.47,0,1.46,1.19,2.64,2.64,2.64.65,0,1.24-.23,1.7-.62.07.47.11.97.11,1.49Z"/><path d="m68.43,359.11c.56-1.59,2.61-2.25,4.16-1.75,1.46.54,2.55,1.61,3.52,2.82-1.45-.16-2.64-.91-3.95-1.4-1.24-.37-2.46-.24-3.73.33h0Z"/><path d="m124.65,347.95c2.54,2.31,5.02,4.68,7.53,7.02.69.56,1.3,1.52,1.28,2.48.07,1.66-1.34,3.19-3.02,3.25-.19,0-.76.05-.96.06-7.7.46-15.43.83-23.13,1.16-11.97.47-24.03.86-36.01.94-.92.06-1.86-.48-2.24-1.3-.4-.82-.25-1.83.33-2.47-.52.69-.56,1.67-.13,2.37.41.72,1.23,1.12,2.03,1.01l5.13-.38c17.12-1.14,34.26-1.88,51.41-2.33,0,0,2.57-.06,2.57-.06.72-.02,1.58.04,2.2-.41,1.29-.89,1.26-2.81.03-3.8-2.34-2.51-4.71-4.99-7.02-7.53h0Z"/><path d="m71.8,356.99c5.06-4.18,12.96-2.39,17.36,1.94-.75-.26-1.44-.58-2.14-.87-4.85-1.96-10.08-2.87-15.21-1.07h0Z"/><path d="m79.69,355.18c5.06-4.18,12.96-2.39,17.36,1.94-.75-.26-1.44-.58-2.14-.87-4.85-1.96-10.08-2.87-15.21-1.07h0Z"/><path d="m87.21,352.86c5.06-4.18,12.96-2.39,17.36,1.94-.75-.26-1.44-.58-2.14-.87-4.85-1.96-10.08-2.87-15.21-1.07h0Z"/><path d="m94.42,350.76c5.06-4.18,12.96-2.39,17.36,1.94-.75-.26-1.44-.58-2.14-.87-4.85-1.96-10.08-2.87-15.21-1.07h0Z"/><path d="m102.41,348.88c7.17-3.98,16.41-.32,21.28,5.68-.86-.49-1.64-1.05-2.45-1.56-5.56-3.5-12.24-5.66-18.82-4.12h0Z"/><path d="m198.42,359.12c-1.26-.57-2.48-.7-3.73-.33-1.31.5-2.5,1.24-3.95,1.4.96-1.21,2.06-2.28,3.52-2.82,1.55-.5,3.6.16,4.16,1.75h0Z"/><path d="m141.86,347.9c-2.32,2.56-4.71,5.06-7.06,7.59-1.23,1-1.28,2.92.02,3.83.62.46,1.48.4,2.21.42,0,0,2.59.06,2.59.06,17.26.45,34.5,1.2,51.73,2.35,0,0,5.17.38,5.17.38.8.1,1.63-.3,2.04-1.02.43-.7.39-1.68-.13-2.38.58.65.74,1.67.33,2.49-.39.83-1.33,1.37-2.25,1.31-12.06-.08-24.19-.47-36.24-.95-7.75-.33-15.53-.7-23.27-1.17,0,0-.65-.04-.65-.04l-.32-.02c-1.68-.06-3.1-1.61-3.02-3.28-.02-.97.59-1.93,1.29-2.49,2.52-2.36,5.01-4.75,7.57-7.08h0Z"/><path d="m195.05,356.99c-5.14-1.8-10.37-.89-15.21,1.07-.7.29-1.4.61-2.14.87,4.4-4.33,12.3-6.12,17.36-1.94h0Z"/><path d="m187.15,355.19c-5.14-1.8-10.37-.89-15.21,1.07-.7.29-1.4.61-2.14.87,4.4-4.33,12.3-6.12,17.36-1.94h0Z"/><path d="m179.64,352.87c-5.14-1.8-10.37-.89-15.21,1.07-.7.29-1.4.61-2.14.87,4.4-4.33,12.3-6.12,17.36-1.94h0Z"/><path d="m172.43,350.77c-5.14-1.8-10.37-.89-15.21,1.07-.7.29-1.4.61-2.14.87,4.4-4.33,12.3-6.12,17.36-1.94h0Z"/><path d="m164.43,348.89c-6.59-1.54-13.27.62-18.82,4.12-.81.51-1.6,1.07-2.45,1.56,4.87-6,14.1-9.66,21.28-5.68h0Z"/></g></svg>